<svg width="50" height="50" viewBox="0 0 50 50" fill="none" xmlns="http://www.w3.org/2000/svg">
<g clip-path="url(#clip0_47_59)">
<path d="M49.3189 1.90905C47.8845 0.47487 45.0078 1.29313 40.2654 4.48493C36.2367 7.19645 31.4043 11.3032 26.6584 16.0491C19.6225 23.0848 14.2733 29.9928 12.4922 34.2579C12.1991 34.1516 11.8951 34.0667 11.5814 34.0047C9.73843 33.6401 7.73677 34.1062 6.08941 35.2826C3.72544 36.9707 3.09937 39.3813 3.00845 39.7877C2.5108 41.6463 1.56832 43.4196 0.281792 44.9174C-0.131978 45.3992 -0.0847119 46.1234 0.388237 46.5474C2.04126 48.0289 4.15582 48.7719 6.35523 48.7719C8.47496 48.7719 10.6736 48.0816 12.6128 46.6968C13.522 46.0475 14.2104 45.3296 14.3437 45.1875C15.9914 43.4169 16.691 41.0953 16.3439 38.9741C20.5285 37.474 27.8237 31.9252 35.179 24.5699C39.9249 19.824 44.0317 14.9915 46.7431 10.9629C49.9348 6.22028 50.7533 3.34352 49.3189 1.90905ZM12.636 43.5952C12.5733 43.6621 12.0017 44.2643 11.2561 44.7966C8.5479 46.7301 5.23228 46.9538 2.82398 45.465C3.95181 43.9187 4.79 42.1757 5.27154 40.3621V40.362C5.27691 40.3417 5.28179 40.3212 5.28609 40.3005C5.29009 40.282 5.69556 38.4326 7.44615 37.1826C8.57212 36.3784 9.9146 36.055 11.1289 36.295C12.1303 36.4928 12.9722 37.0645 13.4995 37.9044C14.5341 39.5525 14.1704 41.9465 12.636 43.5952ZM15.5486 36.7835C15.5247 36.7434 15.1707 36.0247 14.5111 35.4905C15.0794 33.9713 16.3027 31.9178 18.0078 29.5599L21.6655 33.2176C19.0923 35.0699 16.9838 36.2773 15.5486 36.7835ZM23.5545 31.8051L19.4236 27.6742C20.1375 26.7552 20.9098 25.8034 21.733 24.8298L26.4015 29.4983C25.4134 30.3328 24.4619 31.1028 23.5545 31.8051ZM44.4492 10.1822C41.8197 13.9826 37.9411 18.5059 33.5281 22.9187C31.6752 24.7715 29.879 26.457 28.1722 27.967L23.2643 23.059C24.821 21.2981 26.5182 19.4909 28.3093 17.7C32.7222 13.287 37.2456 9.40846 41.0459 6.77868C45.7252 3.54089 47.3398 3.53571 47.65 3.57809C47.6925 3.88796 47.6869 5.50319 44.4492 10.1822Z" fill="#C3937C"/>
<path d="M11.6461 40.4413C11.0813 40.1304 10.3715 40.3362 10.0605 40.901C10.0291 40.9582 9.99109 41.0116 9.94743 41.0598C9.86013 41.1507 9.57322 41.428 9.27517 41.641C8.82302 41.9637 8.33513 42.1951 7.82497 42.3286C7.20124 42.4918 6.828 43.1297 6.99118 43.7534C7.12849 44.278 7.60154 44.6255 8.1196 44.6255C8.21745 44.6255 8.31677 44.6131 8.41589 44.5873C9.20193 44.3816 9.94753 44.0297 10.632 43.541C11.0714 43.2272 11.6546 42.6528 11.6586 42.6484C11.8321 42.4602 11.9827 42.251 12.1061 42.0267C12.4169 41.4619 12.2109 40.752 11.6461 40.4413Z" fill="#C3937C"/>
</g>
<defs>
<clipPath id="clip0_47_59">
<rect width="50" height="50" fill="white"/>
</clipPath>
</defs>
</svg>
