<svg width="43" height="50" viewBox="0 0 43 50" fill="none" xmlns="http://www.w3.org/2000/svg">
<path fill-rule="evenodd" clip-rule="evenodd" d="M39.1228 20.6441C37.8044 20.6441 36.6325 19.7651 36.3102 18.5053L34.5524 11.8841L34.025 12.3236C34.2594 12.6752 35.2555 13.642 34.2594 14.4623C32.941 15.5756 31.5348 13.2025 31.6226 12.0599C31.7398 10.7708 33.3805 9.92122 34.318 8.89581C34.9332 8.22198 36.0758 8.51495 36.3102 9.39387L37.8337 15.1362C40.3533 13.935 43.0779 16.7182 41.6423 19.2085C41.115 20.0874 40.1482 20.6441 39.1228 20.6441ZM16.0072 50C13.4583 50 12.052 46.9531 13.722 44.9902L16.8275 41.3573L17.5306 38.5447C16.3001 36.9334 15.5677 34.8533 15.011 32.7439C14.5423 34.3259 12.6673 35.1169 11.2317 34.3552C10.3528 33.9158 8.97579 33.2419 8.21406 32.7732C6.92497 32.0114 6.54411 30.2536 7.36443 29.0231L10.3528 24.189C12.1399 21.2593 13.9856 17.1284 17.9994 17.1284C18.9369 17.1284 19.9037 17.3628 20.9291 17.8608L22.0131 16.5131L23.4487 11.6791C24.1225 9.39387 27.1987 9.13019 28.312 11.1517C28.6636 11.7963 28.7515 12.4994 28.5464 13.1732L26.9937 18.3882C26.9058 18.769 26.73 19.1206 26.4956 19.4429L24.7085 21.6402C26.5542 25.9469 28.0484 30.4001 29.8941 34.7068L31.9449 39.453C32.1207 39.8924 32.2086 40.3612 32.1793 40.8006L32.2965 46.9238C32.3258 48.5937 30.9488 50 29.2496 50C27.6089 50 26.2612 48.6523 26.2319 47.0117L26.144 41.2987L25.2358 39.2186C24.6792 39.5408 24.0639 39.8045 23.4194 39.951L22.5405 43.5253C22.394 44.0526 22.1303 44.5214 21.7787 44.9023L18.3216 48.916C17.7357 49.5898 16.9154 50 16.0072 50ZM14.3372 24.3355C14.8353 24.3355 15.2747 24.6285 15.4505 25.068C16.9154 28.7301 17.0033 34.4138 19.6986 37.5193C19.933 37.783 20.0209 38.1932 19.933 38.574L19.0248 42.2069C18.9662 42.3827 18.9076 42.5585 18.7904 42.6757L15.5091 46.5136C14.9232 47.1875 15.9779 48.0664 16.5345 47.3925C17.2669 46.5429 19.4642 43.8769 20.0795 43.2909C20.1674 43.203 20.226 43.0858 20.2553 42.9393C21.8666 36.5525 21.1049 38.4275 23.4487 37.49C24.7085 36.9627 25.06 36.0545 25.9683 36.2595C26.3491 36.3181 26.6421 36.5818 26.8179 36.9334C27.0816 37.5779 28.4585 40.5663 28.4585 41.035L28.5757 46.9824C28.605 47.8613 29.9527 47.832 29.9527 46.9531C29.9234 46.1913 29.9234 40.6834 29.7769 40.3905C28.312 36.9627 26.9351 33.74 25.6167 30.2536C25.0893 28.8766 22.8627 23.0464 22.3061 22.0796C22.0717 21.6402 22.1303 21.1421 22.4233 20.7612C22.8041 20.2632 24.6206 18.1538 24.7378 17.7436L26.2905 12.5287C26.4077 12.1478 25.8218 11.9427 25.6753 12.3529C25.4409 13.1439 24.2983 17.4213 23.976 17.8022L22.1596 20.0874C21.7787 20.5269 21.1342 20.6441 20.6361 20.3511C16.2122 17.685 14.6009 21.7281 12.345 25.4195C11.6126 26.5914 9.85471 29.3454 9.29806 30.3708C9.18087 30.6052 9.38595 30.7516 9.56174 30.8395L12.3157 32.2751C12.638 32.4509 12.9602 31.9235 12.6087 31.7185C11.8176 31.3083 9.88401 30.6345 10.675 29.3161L13.3411 24.8922C13.5462 24.5406 13.927 24.3355 14.3372 24.3355ZM13.3411 29.4626C13.722 29.6676 14.0735 29.8727 14.3665 30.1657L13.9856 28.3786L13.3411 29.4626ZM13.0188 18.0366C10.0598 18.0366 7.68671 15.6342 7.68671 12.7045C7.68671 9.74544 10.0598 7.37235 13.0188 7.37235C15.9486 7.37235 18.3509 9.74544 18.3509 12.7045C18.3509 15.6342 15.9486 18.0366 13.0188 18.0366ZM13.0188 9.71614C11.3782 9.71614 10.0305 11.0345 10.0305 12.7045C10.0305 14.3451 11.3782 15.6928 13.0188 15.6928C14.6595 15.6928 16.0072 14.3451 16.0072 12.7045C16.0072 11.0345 14.6595 9.71614 13.0188 9.71614ZM4.14173 6.61062L5.69449 0.868339C5.92886 -0.0105812 7.07146 -0.303555 7.68671 0.370284C9.32736 2.12813 11.7883 2.91915 9.38595 5.7903C8.38984 6.96219 6.6027 5.46802 7.59881 4.29613C7.7746 4.03245 7.89179 3.88597 7.95038 3.76878L7.45233 3.32932L5.66519 10.0091C5.25502 11.5326 3.61437 12.4115 2.12021 12.0306C-1.1318 11.1517 -0.457959 6.31765 2.88194 6.31765C3.3214 6.31765 3.76086 6.43484 4.14173 6.61062ZM2.88194 8.66144C2.2374 8.66144 2.12021 9.59895 2.73545 9.74544C3.49718 9.95052 3.70227 8.66144 2.88194 8.66144ZM38.5661 17.8901C38.7712 18.5932 39.8552 18.3296 39.6501 17.5971C39.4743 16.9233 38.4196 17.187 38.5661 17.8901Z" fill="#C3937C"/>
</svg>
