<svg width="50" height="50" viewBox="0 0 50 50" fill="none" xmlns="http://www.w3.org/2000/svg">
<path d="M22.1052 3.10141L12.7001 0.0400174C12.4724 -0.0348791 12.228 -0.00344903 12.02 0.124276C11.8119 0.252002 11.6582 0.467998 11.5926 0.723448L5.93603 22.6073C5.50448 24.271 5.67794 26.0251 6.4236 27.5458C7.02442 28.7702 7.94116 29.7178 9.04863 30.2949L4.92512 46.2458L1.14315 45.0147C0.668094 44.8589 0.173369 45.1665 0.0356799 45.6981C-0.102009 46.2298 0.170984 46.7868 0.644848 46.9406L5.27679 48.4486C5.27858 48.4492 5.28037 48.4506 5.28275 48.4512C5.28454 48.4519 5.28573 48.4512 5.28752 48.4519L9.91887 49.9599C10.0023 49.9873 10.0858 50 10.168 50C10.5555 50 10.9131 49.7151 11.0263 49.2764C11.164 48.7441 10.891 48.1878 10.4172 48.034L6.64176 46.8049L10.7653 30.8559C11.012 30.892 11.26 30.9154 11.5068 30.9154C12.4694 30.9154 13.4219 30.6433 14.2891 30.1076C15.644 29.2704 16.6275 27.8922 17.0572 26.2257L22.715 4.34456C22.8521 3.81159 22.5791 3.25522 22.1052 3.10141ZM15.3394 25.6667C15.042 26.8189 14.3631 27.7704 13.4267 28.3496C12.4914 28.9267 11.4126 29.0617 10.3862 28.7287C10.3856 28.7287 10.385 28.7281 10.3844 28.7281C10.3838 28.7281 10.3826 28.7281 10.382 28.7274C9.35559 28.3937 8.50622 27.6307 7.99063 26.5788C7.47504 25.5282 7.35583 24.3165 7.65326 23.167L8.89485 18.3636H17.2283L15.3394 25.6667ZM17.7469 16.3574H9.41282L13.0601 2.24545L20.748 4.7478L17.7469 16.3574Z" fill="#C3937C"/>
<path d="M49.9601 45.4762C49.814 44.9465 49.3145 44.6516 48.8419 44.8135L45.0802 46.1175L40.7099 30.2468C43.2282 28.8652 44.555 25.5965 43.7045 22.5043H43.7039L37.7058 0.734197C37.5609 0.20524 37.0602 -0.090333 36.5876 0.0721656L27.2319 3.31612C27.0054 3.39503 26.8164 3.5709 26.7056 3.80629C26.5941 4.04168 26.5715 4.31652 26.6424 4.57064L32.6399 26.3394C33.0965 27.9959 34.1002 29.354 35.467 30.1638C36.3116 30.6647 37.2325 30.9188 38.1617 30.9188C38.4419 30.9188 38.7232 30.8941 39.0034 30.8473L43.3713 46.7099L39.6173 48.0113C39.1452 48.1751 38.8812 48.7368 39.0266 49.2658C39.1452 49.6971 39.4993 49.9733 39.8814 49.9733C39.9684 49.9733 40.0572 49.9593 40.1448 49.9292L49.37 46.7313C49.8414 46.5668 50.1055 46.0051 49.9601 45.4762ZM36.2621 2.28496L38.517 10.4694H30.1389L28.6147 4.93709L36.2621 2.28496ZM36.3021 28.3904C35.3573 27.8307 34.6635 26.8925 34.3482 25.747L30.6914 12.4756H39.0689L41.995 23.0968C42.6447 25.4561 41.4603 27.9711 39.3556 28.7067C39.3539 28.7074 39.3521 28.7074 39.3497 28.708C39.3473 28.7087 39.3455 28.71 39.3437 28.7107C38.3263 29.0625 37.245 28.9501 36.3021 28.3904Z" fill="#C3937C"/>
</svg>
