<svg width="60" height="80" viewBox="0 0 60 80" fill="none" xmlns="http://www.w3.org/2000/svg">
<path d="M13.4585 4.74904C14.3126 4.43194 15.2582 4.88534 15.5798 5.73628C17.7498 11.4795 22.8924 21.6684 30.081 26.4524V48.7365C26.6267 47.7212 18.261 43.4781 12.4321 34.6286C7.17675 26.65 2.40402 16.682 0.131098 11.4684C-0.232206 10.635 0.187938 9.67636 1.04141 9.35946L13.4585 4.74904Z" fill="#C3937C"/>
<path d="M46.5415 4.74904C45.6874 4.43194 44.7419 4.88539 44.4235 5.73749C42.2774 11.481 37.269 21.6688 30.081 26.4524V48.7365C33.5352 47.7212 41.739 43.4781 47.5679 34.6286C52.8233 26.65 57.596 16.682 59.8689 11.4684C60.2322 10.635 59.8121 9.67636 58.9586 9.35946L46.5415 4.74904Z" fill="#C3937C"/>
<path d="M13.4585 79.8986C14.3126 80.2157 15.2582 79.7623 15.5798 78.9114C17.7498 73.1681 22.8924 62.9792 30.081 58.1953V35.9111C26.6267 36.9265 18.261 41.1695 12.4321 50.0191C7.17675 57.9976 2.40402 67.9656 0.131098 73.1793C-0.232206 74.0126 0.187938 74.9713 1.04141 75.2882L13.4585 79.8986Z" fill="#C3937C"/>
<path d="M46.5415 79.8986C45.6874 80.2157 44.7419 79.7623 44.4235 78.9101C42.2774 73.1667 37.269 62.9789 30.081 58.1953V35.9111C33.5352 36.9265 41.739 41.1695 47.5679 50.0191C52.8233 57.9976 57.596 67.9656 59.8689 73.1793C60.2322 74.0126 59.8121 74.9713 58.9586 75.2882L46.5415 79.8986Z" fill="#C3937C"/>
<path d="M30 4.16826H19.7191C19.7191 5.50065 20.0726 8.19876 21.4862 8.332C22.8998 8.46524 27.7511 5.61169 30 4.16826Z" fill="#C3937C"/>
<path d="M30 4.16826H19.7191C19.7191 2.83586 20.0726 0.137748 21.4862 0.00450788C22.8998 -0.128732 27.7511 2.72482 30 4.16826Z" fill="#C3937C"/>
<path d="M30 4.16826L40.2808 4.16826C40.2808 5.50065 39.9274 8.19876 38.5138 8.332C37.1002 8.46524 32.2489 5.61169 30 4.16826Z" fill="#C3937C"/>
<path d="M30 4.16826L40.2808 4.16826C40.2808 2.83586 39.9274 0.137748 38.5138 0.00450788C37.1002 -0.128732 32.2489 2.72482 30 4.16826Z" fill="#C3937C"/>
<path d="M32.2489 4.16826C32.2489 5.40783 31.2421 6.4127 30 6.4127C28.7579 6.4127 27.7511 5.40783 27.7511 4.16826C27.7511 2.92868 28.7579 1.92381 30 1.92381C31.2421 1.92381 32.2489 2.92868 32.2489 4.16826Z" fill="#C3937C"/>
</svg>
