<svg width="40" height="53" viewBox="0 0 40 53" fill="none" xmlns="http://www.w3.org/2000/svg">
<path d="M8.97233 3.14624C9.5417 2.93616 10.1722 3.23654 10.3865 3.80028C11.8332 7.60518 15.2076 14.3306 20 17.5V32.5C17.6972 31.8273 12.174 28.8042 8.28803 22.9414C4.7845 17.6556 1.60268 11.0518 0.0873989 7.5978C-0.154804 7.0457 0.125292 6.41059 0.694277 6.20065L8.97233 3.14624Z" fill="#C3937C"/>
<path d="M31.0277 3.14624C30.4583 2.93616 29.8279 3.23657 29.6157 3.80109C28.1849 7.60613 24.792 14.3309 20 17.5V32.5C22.3028 31.8273 27.826 28.8042 31.712 22.9414C35.2155 17.6556 38.3973 11.0518 39.9126 7.5978C40.1548 7.0457 39.8747 6.41059 39.3057 6.20065L31.0277 3.14624Z" fill="#C3937C"/>
<path d="M8.97233 52.9328C9.5417 53.1429 10.1722 52.8425 10.3865 52.2788C11.8332 48.4739 15.2076 41.7637 20 38.5943V24C17.6972 24.6727 12.174 27.2748 8.28803 33.1376C4.7845 38.4234 1.60268 45.0272 0.0873989 48.4813C-0.154804 49.0334 0.125292 49.6685 0.694277 49.8784L8.97233 52.9328Z" fill="#C3937C"/>
<path d="M31.0277 52.9328C30.4583 53.1429 29.8279 52.8425 29.6157 52.278C28.1849 48.4729 24.792 41.7635 20 38.5943V24C22.3028 24.6727 27.826 27.2748 31.712 33.1376C35.2155 38.4234 38.3973 45.0272 39.9126 48.4813C40.1548 49.0334 39.8747 49.6685 39.3057 49.8784L31.0277 52.9328Z" fill="#C3937C"/>
<path d="M20 2.76147L13 2.76147C13 3.64418 13.3817 5.43168 14.3241 5.51995C15.2665 5.60822 18.5007 3.71774 20 2.76147Z" fill="#C3937C"/>
<path d="M20 2.76147L13 2.76147C13 1.87875 13.3817 0.0912579 14.3241 0.00298647C15.2665 -0.085285 18.5007 1.8052 20 2.76147Z" fill="#C3937C"/>
<path d="M20 2.76147L27 2.76147C27 3.64418 26.6183 5.43168 25.6759 5.51995C24.7335 5.60822 21.4993 3.71774 20 2.76147Z" fill="#C3937C"/>
<path d="M20 2.76147L27 2.76147C27 1.87875 26.6183 0.0912579 25.6759 0.00298647C24.7335 -0.085285 21.4993 1.8052 20 2.76147Z" fill="#C3937C"/>
<path d="M21.4993 2.76147C21.4993 3.58269 20.828 4.24841 20 4.24841C19.172 4.24841 18.5 3.58269 18.5 2.76147C18.5 1.94025 19.172 1.27452 20 1.27452C20.828 1.27452 21.4993 1.94025 21.4993 2.76147Z" fill="#C3937C"/>
</svg>
